<svg width="32" height="32" viewBox="0 0 32 32" fill="none" xmlns="http://www.w3.org/2000/svg">
<circle cx="16" cy="16" r="15" fill="#014A94"/>
<g clip-path="url(#clip0_1_23)">
<path d="M23.1484 16.1699C23.1484 20.3154 20.3096 23.2656 16.1172 23.2656C12.0977 23.2656 8.85156 20.0195 8.85156 16C8.85156 11.9805 12.0977 8.73438 16.1172 8.73438C18.0742 8.73438 19.7207 9.45215 20.9893 10.6357L19.0117 12.5371C16.4248 10.041 11.6143 11.916 11.6143 16C11.6143 18.5342 13.6387 20.5879 16.1172 20.5879C18.9941 20.5879 20.0723 18.5254 20.2422 17.4561H16.1172V14.957H23.0342C23.1016 15.3291 23.1484 15.6865 23.1484 16.1699Z" fill="white"/>
</g>
<defs>
<clipPath id="clip0_1_23">
<rect width="15" height="15" fill="white" transform="translate(8.5 8.5)"/>
</clipPath>
</defs>
</svg>
