<svg width="256" height="256" viewBox="0 0 256 256" fill="none" xmlns="http://www.w3.org/2000/svg">
<circle cx="128.5" cy="128.5" r="127.5" fill="#014A94"/>
<path d="M189.023 129.939C189.023 165.037 164.988 190.016 129.492 190.016C95.4602 190.016 67.9766 162.532 67.9766 128.5C67.9766 94.468 95.4602 66.9844 129.492 66.9844C146.062 66.9844 160.002 73.0615 170.742 83.0826L153.999 99.1809C132.097 78.0473 91.3674 93.9223 91.3674 128.5C91.3674 149.956 108.507 167.344 129.492 167.344C153.85 167.344 162.979 149.882 164.417 140.828H129.492V119.67H188.056C188.627 122.82 189.023 125.846 189.023 129.939Z" fill="white"/>
</svg>
