<svg width="256" height="256" viewBox="0 0 256 256" fill="none" xmlns="http://www.w3.org/2000/svg">
<g clip-path="url(#clip0_3_5)">
<path d="M180.208 242.917C171.424 242.917 163.957 239.842 157.807 233.693C151.658 227.543 148.583 220.076 148.583 211.292C148.583 210.237 148.847 207.778 149.374 203.912L75.3187 160.692C72.5076 163.327 69.2573 165.393 65.5677 166.89C61.8781 168.387 57.925 169.132 53.7083 169.125C44.9236 169.125 37.4566 166.05 31.3073 159.901C25.158 153.752 22.0833 146.285 22.0833 137.5C22.0833 128.715 25.158 121.248 31.3073 115.099C37.4566 108.95 44.9236 105.875 53.7083 105.875C57.925 105.875 61.8781 106.623 65.5677 108.12C69.2573 109.617 72.5076 111.68 75.3187 114.308L149.374 71.0875C149.023 69.8576 148.805 68.6734 148.72 67.5349C148.636 66.3964 148.59 65.1209 148.583 63.7083C148.583 54.9236 151.658 47.4566 157.807 41.3073C163.957 35.158 171.424 32.0833 180.208 32.0833C188.993 32.0833 196.46 35.158 202.609 41.3073C208.759 47.4566 211.833 54.9236 211.833 63.7083C211.833 72.493 208.759 79.96 202.609 86.1094C196.46 92.2587 188.993 95.3333 180.208 95.3333C175.992 95.3333 172.039 94.5849 168.349 93.0879C164.659 91.591 161.409 89.5284 158.598 86.9L84.5427 130.121C84.8941 131.351 85.1155 132.538 85.2068 133.684C85.2982 134.829 85.3403 136.101 85.3333 137.5C85.3263 138.899 85.2841 140.174 85.2068 141.327C85.1295 142.479 84.9081 143.663 84.5427 144.879L158.598 188.1C161.409 185.465 164.659 183.402 168.349 181.912C172.039 180.422 175.992 179.674 180.208 179.667C188.993 179.667 196.46 182.741 202.609 188.891C208.759 195.04 211.833 202.507 211.833 211.292C211.833 220.076 208.759 227.543 202.609 233.693C196.46 239.842 188.993 242.917 180.208 242.917Z" fill="#014A94"/>
</g>
<defs>
<clipPath id="clip0_3_5">
<rect width="256" height="256" fill="white"/>
</clipPath>
</defs>
</svg>
