<svg width="32" height="32" viewBox="0 0 32 32" fill="none" xmlns="http://www.w3.org/2000/svg">
<circle cx="16" cy="16" r="15" fill="#014A94"/>
<g clip-path="url(#clip0_1_34)">
<path d="M21.0967 10.8447C19.8691 9.61426 18.2344 8.9375 16.4971 8.9375C12.9111 8.9375 9.99316 11.8555 9.99316 15.4414C9.99316 16.5869 10.292 17.7061 10.8604 18.6934L9.9375 22.0625L13.3857 21.1572C14.335 21.6758 15.4043 21.9482 16.4941 21.9482H16.4971C20.0801 21.9482 23.0625 19.0303 23.0625 15.4443C23.0625 13.707 22.3242 12.0752 21.0967 10.8447ZM16.4971 20.8525C15.5244 20.8525 14.5723 20.5918 13.7432 20.0996L13.5469 19.9824L11.502 20.5186L12.0469 18.5234L11.918 18.3184C11.376 17.457 11.0918 16.4639 11.0918 15.4414C11.0918 12.4619 13.5176 10.0361 16.5 10.0361C17.9443 10.0361 19.3008 10.5986 20.3203 11.6211C21.3398 12.6436 21.9668 14 21.9639 15.4443C21.9639 18.4268 19.4766 20.8525 16.4971 20.8525ZM19.4619 16.8037C19.3008 16.7217 18.501 16.3291 18.3516 16.2764C18.2021 16.2207 18.0938 16.1943 17.9854 16.3584C17.877 16.5225 17.5664 16.8857 17.4697 16.9971C17.376 17.1055 17.2793 17.1201 17.1182 17.0381C16.1631 16.5605 15.5361 16.1855 14.9063 15.1045C14.7393 14.8174 15.0732 14.8379 15.3838 14.2168C15.4365 14.1084 15.4102 14.0146 15.3691 13.9326C15.3281 13.8506 15.0029 13.0508 14.8682 12.7256C14.7363 12.4092 14.6016 12.4531 14.502 12.4473C14.4082 12.4414 14.2998 12.4414 14.1914 12.4414C14.083 12.4414 13.9072 12.4824 13.7578 12.6436C13.6084 12.8076 13.1895 13.2002 13.1895 14C13.1895 14.7998 13.7725 15.5732 13.8516 15.6816C13.9336 15.79 14.9971 17.4307 16.6289 18.1367C17.6602 18.582 18.0645 18.6201 18.5801 18.5439C18.8936 18.4971 19.541 18.1514 19.6758 17.7705C19.8105 17.3896 19.8105 17.0645 19.7695 16.9971C19.7314 16.9238 19.623 16.8828 19.4619 16.8037Z" fill="white"/>
</g>
<defs>
<clipPath id="clip0_1_34">
<rect width="15" height="15" fill="white" transform="translate(9 8)"/>
</clipPath>
</defs>
</svg>
