<svg width="256" height="256" viewBox="0 0 256 256" fill="none" xmlns="http://www.w3.org/2000/svg">
<circle cx="128.5" cy="128.5" r="127.5" fill="#014A94"/>
<path d="M172.225 85.0854C161.75 74.6674 147.8 68.9375 132.975 68.9375C102.375 68.9375 77.475 93.643 77.475 124.004C77.475 133.703 80.025 143.178 84.875 151.537L77 180.062L106.425 172.398C114.525 176.788 123.65 179.095 132.95 179.095H132.975C163.55 179.095 189 154.39 189 124.029C189 109.32 182.7 95.5033 172.225 85.0854ZM132.975 169.818C124.675 169.818 116.55 167.611 109.475 163.443L107.8 162.451L90.35 166.99L95 150.098L93.9 148.362C89.275 141.07 86.85 132.661 86.85 124.004C86.85 98.7775 107.55 78.2393 133 78.2393C145.325 78.2393 156.9 83.0018 165.6 91.6586C174.3 100.315 179.65 111.8 179.625 124.029C179.625 149.28 158.4 169.818 132.975 169.818ZM158.275 135.538C156.9 134.844 150.075 131.52 148.8 131.073C147.525 130.602 146.6 130.379 145.675 131.768C144.75 133.157 142.1 136.233 141.275 137.175C140.475 138.093 139.65 138.217 138.275 137.522C130.125 133.479 124.775 130.304 119.4 121.151C117.975 118.721 120.825 118.894 123.475 113.636C123.925 112.718 123.7 111.924 123.35 111.229C123 110.535 120.225 103.763 119.075 101.01C117.95 98.3311 116.8 98.7031 115.95 98.6535C115.15 98.6039 114.225 98.6039 113.3 98.6039C112.375 98.6039 110.875 98.9512 109.6 100.315C108.325 101.704 104.75 105.028 104.75 111.8C104.75 118.572 109.725 125.12 110.4 126.038C111.1 126.956 120.175 140.846 134.1 146.824C142.9 150.595 146.35 150.917 150.75 150.272C153.425 149.875 158.95 146.948 160.1 143.724C161.25 140.499 161.25 137.746 160.9 137.175C160.575 136.555 159.65 136.208 158.275 135.538Z" fill="white"/>
</svg>
